<svg width="18" height="18" viewBox="0 0 18 18" fill="none" xmlns="http://www.w3.org/2000/svg">
<g id="open-drive-folder-icon" clip-path="url(#clip0_7708_15)">
<g id="folder_mydrive" clip-path="url(#clip1_7708_15)">
<path id="icon" d="M14.7521 10.6729L12.9417 7.57917C12.8806 7.47222 12.8042 7.39583 12.7125 7.35C12.6208 7.28889 12.5139 7.25833 12.3917 7.25833H11.1083C10.9861 7.25833 10.8792 7.28889 10.7875 7.35C10.6958 7.39583 10.6194 7.47222 10.5583 7.57917L8.74792 10.6729C8.68681 10.7799 8.65625 10.8868 8.65625 10.9937C8.65625 11.1007 8.68681 11.2076 8.74792 11.3146L9.38958 12.4375C9.45069 12.5444 9.52708 12.6285 9.61875 12.6896C9.7257 12.7354 9.84028 12.7583 9.9625 12.7583H13.5604C13.6826 12.7583 13.7896 12.7354 13.8813 12.6896C13.9729 12.6285 14.0493 12.5444 14.1104 12.4375L14.7521 11.3146C14.8285 11.2076 14.859 11.1007 14.8438 10.9937C14.8438 10.8868 14.8132 10.7799 14.7521 10.6729ZM10.7417 10.925L11.75 9.09167L12.7813 10.925H10.7417ZM1.75833 16.2417C1.28472 16.2417 0.872222 16.0736 0.520833 15.7375C0.184722 15.3861 0.0166667 14.9736 0.0166667 14.5V3.775C0.0166667 3.30139 0.184722 2.89653 0.520833 2.56042C0.872222 2.20903 1.28472 2.03333 1.75833 2.03333H7.25833L9 3.775H16.2417C16.7153 3.775 17.1201 3.95069 17.4563 4.30208C17.8076 4.63819 17.9833 5.04306 17.9833 5.51667V14.5C17.9833 14.9736 17.8076 15.3861 17.4563 15.7375C17.1201 16.0736 16.7153 16.2417 16.2417 16.2417H1.75833ZM1.75833 14.5H16.2417V5.51667H8.28958L6.525 3.775H1.75833V14.5ZM1.75833 14.5V3.775V5.79167V14.5Z" fill="#80868B"/>
</g>
</g>
<defs>
<clipPath id="clip0_7708_15">
<rect width="18" height="18" fill="white"/>
</clipPath>
<clipPath id="clip1_7708_15">
<rect width="24" height="22" fill="white" transform="translate(-3 -2)"/>
</clipPath>
</defs>
</svg>
